<?xml version='1.0' encoding='utf-8'?>
<svg xmlns="http://www.w3.org/2000/svg" enable-background="new 0 0 2692.935 1575.937" version="1.1" viewBox="0 0 2692.935 1575.937">
	<path d="m445.68 786.43c1.634-8.693-2.341-13.446 0.882-21.174 0.43-1.03 0.588-2.425 0.276-3.476-3.413-11.497-3.551-23.493-4.35-35.228-2.143-31.488-9.008-30.129 4.015-74.195 2.335-7.902 7.392-14.417 11.828-21.165 6.781-10.314 7.039-10.248-2.68-17.917-24.437-19.283-12.849-32.433-28.84-42.749-7.903-5.098-13.39-12.816-19.671-19.651-0.919-1-12.706-28.185-13.909-39.563-1.501-14.198-3.823-21.075-3.257-26.431 0.391-3.702 3.543-6.739 6.899-5.733 5.364 1.608 10.937 0.499 16.343 2.375 14.405 4.996 9.41 11.501 27.233 15.639 11.102 2.578 18.781-19.377 19.99-30.67 1.902-17.756 12.375-15.838 14.762-20.722 2.014-4.121 10.849-8.54 16.585-5.246 11.58 6.652 32.837 11.533 42.064 10.867 2.845-0.205 5.671 0.426 7.707 2.506 6.615 6.759 14.185 13.064 16.464 22.729 0.236 1.001 6.467 23.324 8.752 28.305 2.732 5.957 3.169 4.215 14.322-5.925 12.344-11.224 14.298-7.031 22.138-14.717 11.661-11.432 14.477-12.746 12.878-17.844-2.11-6.728 1.484-8.252 0.778-12.207-6.285-35.222 14.856-70.849 37.863-103.76 7.335-10.492 16.266-19.341 27.43-25.857 13.621-7.949 7.063-11.123 15.172-13.332 3.993-1.088 8.05-1.855 11.93-3.506 22.922-9.751 28.264-43.348 51.439-63.857 9.457-8.369 55.347-38.985 56.356-39.575 19.004-11.131 25.455-7.82 58.901-23.516 7.724-3.625 45.942-24.598 68.484-32.789 3.675-1.335 6.813-3.932 10.266-5.841 6.233-3.445 13.083-5.51 19.111-9.428 9.314-6.053 6.081-2.52 60.03-24.008 33.046-13.162 121.36-26.122 228.94 2.239 16.049 4.231 57.322 24.827 121.9 29.203 93.311 6.324 190.93-5.424 282.82-21.34 30.765-5.329 60.763-11.693 91.193-18.382 19.89-4.372 43.679-6.6 62.226-15.513 50.23-24.139 98.601-0.282 99.615-0.131 23.995 3.562 38.953 14.322 53.973 15.517 23.142 1.842 24.288 8.818 61.959 13.419 72.52 8.857 52.299-1.744 93.258 11.484 63.83 20.616 148.14-8.361 192.53 37.299 114.59 117.86 105.04 108.8 113.45 110 29.244 4.149 43.449-6.142 44.848 10.945 0.928 11.345-11.207 26.039-1.215 36.873 31.216 33.845 89.008 79.963 116.72 159.92 4.646 13.406 9.714 26.812 11.195 41.112 0.104 1 24.936 95.339 18.046 134.31-11.244 63.605-8.172 32.333-15.715 70.536-1.125 5.701-2.897 11.527-5.111 16.93-4.473 10.916-4.874 24.602-8.97 30.58-1.741 2.542-16.509 38.345-20.924 52.954-2.618 8.662-3.139 17.334-0.031 26.263 8.154 23.432-0.396 47.14-9.902 55.691-12.757 11.475-6.066 23.499-6.296 25.341-1.659 13.292 2.498 26.319 1.578 39.661-3.132 45.431 24.39 51.917 5.575 105.39-2.906 8.257-13.219 27.93-11.363 44.308 0.165 1.455-0.051 2.743-0.591 4.038-13.788 33.061-7.643 23.993-6.649 71.141 0.219 10.38 7.59 2.501 12.559 22.252 0.825 3.278-1.001 9.819 5.274 11.389 4.539 1.136 8.016 4.251 12.152 6.135 5.376 2.449 13.306 17.628 12.155 28.2-0.659 6.054 0.016 12.244-1.685 18.24-0.432 1.523-0.374 3.182 0.169 4.702 3.524 9.853-1.56 11.138 2.097 19.165 6.213 13.645-1.401 18.126-1.678 21.239-1.233 13.85-19.597 33.412-22.658 42.359-0.662 1.935-2.126 3.301-4.016 4.181-11.936 5.558-10.913 5.85-15.404 4.866-7.116-1.56-11.587 0.855-14.475 7.584-1.705 3.971-5.449 6.132-8.315 9.027-14.576 14.725-7.369 22.165-74.221 21.656-12.861-0.098-22.465-5.11-28.764-16.413-6.214-11.148-12.057-11.624-10.34-19.186 0.5-2.201-2.947-26.248-4.408-28.385-4.416-6.456-3.279-13.731-3.008-20.764 2.09-54.207 2.583-1.459 13.076-86.282 0.573-4.626 6.845-8.203 7.713-42.828 0.031-1.223 7.549-75.925-2.096-106.83-1.749-5.602-5.396-10.622-5.311-16.842 0.064-4.686-10.27-6.167-7.36-19.551 1.92-8.826-2.904-29.861-6.428-38.458-2.367-5.774-2.021-12.789-3.286-19.202-4.784-24.265-27.992-43.16-50.565-88.776-1.958-3.957-4.26-4.061-7.466-0.997-5.961 5.694 0.635 5.737-9.997 21.135-2.798 4.052 1e-3 4.413-6.665 11.659-17.99 19.553-8.586 31.137-6.849 38.859 4.159 18.499 3.395 65.967 12.451 85.047 2.656 5.595 4.657 11.896 4.921 18.716 0.27 6.974 11.43 26.031 15.974 41.813 6.695 23.251 0.618 11.665 13.941 40.159 10.034 21.46 16.561 42.155 2.749 59.893-12.979 16.669-13.441 19.602-21.45 27.508-5.653 5.58-8.688 13.152-14.412 18.696-2.319 2.247-0.365 8.722-2.456 9.522-4.827 1.847-6.393 6.739-9.801 9.863-3.527 3.229-1.625-3.075-15.663 16.365-18.078 25.035-18.747 28.392-17.814 32.637 1.5 6.826-3.031 15.491 3.699 24.522 5.466 7.335 9.199 15.646 13.242 23.776 0.618 1.242 0.931 2.752 2.086 3.535 5.869 3.982 16.104 23.778 0.943 25.306-2.991 0.302-5.892 0.442-8.415 2.315-0.444 0.33-1.207 0.624-1.672 0.472-4.652-1.516-9.532 0.247-14.103-0.888-8.385-2.082-23.413 5.277-44.127 1.363-9.48-1.791-37.729-3.834-53.662-1.407-12.953 1.973-14.389 7.335-18.272 5.384-8.769-4.404-19.376-1.172-35.736-4.143-12.083-2.195-21.418 2.485-25.3 0.038-8.638-5.445-11.789 0.34-29.399-5.738-2.055-0.709-5.967-1.975-2.635-11.05 5.683-15.475-0.575-19.582 6.58-26.561 25.798-25.163 38.461-14.249 48.951-20.513 12.811-7.65 22.945-12.122 25.467-21.885 1.428-5.527 9.81-16.588 9.692-23.4-0.024-1.402 0.398-2.695 0.994-3.989 8.568-18.593 3.563-20.896 7.663-27.673 6.499-10.738 9.368-64.749-5.171-83.2-2.864-3.634-4.635-7.655-6.16-12.04-8.043-23.121-15.328-25.055-23.854-54.818-5.279-18.43-3.87-86.498-31.671-122.87-26.201-34.282-22.257-28.138-27.854-37.619-2.041-3.458-4.167-6.699-7.57-8.965-0.98-0.653-2.147-1.469-2.233-2.673-0.389-5.432-5.402-6.402-8.623-9.03-4.167-3.4-4.346 1.07-50.785 28.698-107.61 64.023-144.88 54.479-193.53 74.093-144.58 58.29-332.78-6.496-358.87-6.375-13.989 0.065-27.376-7.691-37.619 2.531-9.969 9.95-18.127 22.877-25.191 34.976-10.013 17.149-17.781 35.613-22.998 54.776-4.68 17.192-4.004 36.569-10.52 53.124-3.054 7.76 1.248 11.03 2.165 22.747 0.747 9.545 4.877 21.068 7.293 30.538 4.39 17.202 8.633 34.42 10.767 52.077 2.045 16.923 2.248 34.229-0.794 51.047-2.728 15.086-10.848 20.959-17.44 33.953-2.549 5.025-6.267 6.695-11.567 6.315-2.033-0.146-4.852-1.344-5.997 0.947-1.101 2.204 1.357 3.884 2.674 5.487 21.59 26.281 9.972 33.98 20.881 46.716 1.19 1.389 2.71 1.175 4.371 0.92 7.272-1.114 12.939 5.299 10.016 12.129-3.43 8.014-8.082 22.736-11.982 23.194-6.201 0.728-11.878 4.795-18.523 2.859-0.847-0.247-2.185-0.056-2.835 0.485-6.65 5.533-8.449-0.461-12.673 2.468-10.894 7.555-18.42 4.518-23.054 6.278-11.315 4.298-23.004 3.658-34.625 2.299-29.835-3.488-27.238 2.483-45.558 0.521-24.482-2.622-31.039 6.594-42.27 3.157-11.113-3.401-22.393-2.68-33.61-1.307-9.727 1.19-19.396 2e-3 -29.087 0.256-3.548 0.093-4.438-2.776-6.102-6.397-3.783-8.231-11.006-5.446-12.904-5.349-12.718 0.653-8.808-17.934-5.672-23.629 11.547-20.973 5.57-29.075 15.135-35.489 11.151-7.477 21.096-16.525 32.852-23.317 12.989-7.504 22.831-16.079 31.381-55.875 1.441-6.707 0.787-13.427 1.536-20.104 0.978-8.711-21.51-4.828-29.063-5.572-5.878-0.579-12.03 3.907-19.117 3.299-11.402-0.978-21.314-5.371-31.417-10.838-23.312-12.615-39.351-30.753-56.423-50.282-19.028-21.767-36.895-43.987-52.333-68.521-5.286-8.4-8.734-17.893-13.845-26.288-4.883-8.021-11.847-14.213-13.593-23.945-0.943-5.257-0.263-10.65 0.216-15.969 1.437-15.961 1.942-33.568-1.401-49.343-1.988-9.38-3.979-15.755-2.579-25.76 1.991-14.231 0.587-19.471-3.126-22.622-4.976-4.223-2.297-9.053-9.468-6.071-9.446 3.928-17.05 1.035-25.13-4.115-11.486-7.32-6.917 5.394-22.476 12.457-10.085 4.578-23.048 20.605-43.791 6.146-9.091-6.337-18.446-12.263-26.247-20.303-11.692-12.05-29.973 32.052-31.631 64.804-0.068 1.349-0.549 2.698-0.974 4.004-3.119 9.591-6.728 18.979-8.156 29.121-2.076 14.739-9.675 21.267-9.584 30.396 0.036 3.607-1.235 7.199-3.347 10.029-4.531 6.072-7.272 13.151-11.499 19.367-1.78 2.618-3.698 5.176-3.886 8.538-0.057 1.016-0.459 2.007-1.448 2.438-8.261 3.605-5.15 11.398-9.589 34.605-4.372 22.856-17.425 47.34-24.241 50.688-7.386 3.628-1.671 2.955-26.758 29.786-23.748 25.398-45.173 39.244-54.473 50.054-3.623 4.212-7.258 9.719-14.355 9.09-3.273-0.29-2.828 4.4-5.311 8.513-7.487 12.403-14.435 3.851-14.595 11.853-0.165 8.293-9.185 14.042-16.546 17.867-5.051 2.624-9.492 13.104-21.844 15.102-0.583 0.094-19.504 11.204-33.554 12.554-24.784 2.38-42.496 15.969-75.326 18.545-8.182 0.642-11.788-2.406-12.241 2.893-2.609 30.558-33.817 10.704-46.768 7.369-23.622-6.083-31.186-17.074-44.179-23.369-11.937-5.783-10.707-13.172-18.845-19.275-3.697-2.774-2.919-8.347-4.947-12.246-2.381-4.576-6.275-8.053-9.954-11.548-7.509-7.133-16.968-12.958-20.667-23.168-1.938-5.349-1.964-11.358-4.665-16.365-2.203-4.084-5.965-7.078-8.741-10.796-3.187-4.268-0.498-17.601-6.06-18.383-2.729-0.383-4.575-2.364-6.3-4.239-5.393-5.863-11.994-9.641-19.568-11.859-8.981-2.63-0.014-4.981-23.705-11.34-10.396-2.791-11.367-7.939-22.016-12.415-9.653-4.058-19.075-17.66-31.977-23.033-1.113-0.463-2.419-0.841-2.827-2.007-1.862-5.323-6.464-8.441-9.905-12.472-31.102-36.434-52.994-69.749-60.001-83.202-4.769-9.156-12.38-16.448-17.984-25.083-17.464-26.904-10.82-27.766-18.477-39.454-4.905-7.489-9.302-26.464-9.877-29.737-0.812-4.619 0.593-6.206 5.288-6.338 22.67-0.636 35.47 14.068 51.244 27.178 16.842 13.998 36.992 24.037 58.363 28.868 30.076 6.799 94.441 5.971 106.7-31.188 9.397-28.484-29.904-50.519-27.471-80.879 0.525-6.555 1.945-8.375 8.418-7.821 42.323 3.625 46.725 3.561 54.715 0.257 12.956-5.357 28.227-3.436 41.554-8.095 13.421-4.693 21.725-17.415 30.257-28.723 21.184-28.078 42.758-64.142 46.152-99.71 2.418-25.3-0.91-51.973 3.778-76.917z"/>
</svg>